<?xml version="1.0" encoding="UTF-8"?>
<svg version="1.1" xmlns="http://www.w3.org/2000/svg" width="200" height="200">
<path d="M0 0 C66 0 132 0 200 0 C200 66 200 132 200 200 C134 200 68 200 0 200 C0 134 0 68 0 0 Z " fill="#FAFDFB" transform="translate(0,0)"/>
<path d="M0 0 C0 1.65 0 3.3 0 5 C-1.98 5.99 -3.96 6.98 -6 8 C-6 8.99 -6 9.98 -6 11 C-5.113125 11.2475 -4.22625 11.495 -3.3125 11.75 C1.01564205 13.38326115 4.0051927 14.84522435 6.01171875 19.19140625 C6.81773605 21.46357266 7.55170916 23.63046272 8 26 C7.67 26.66 7.34 27.32 7 28 C5.35 27.67 3.7 27.34 2 27 C2 27.66 2 28.32 2 29 C-0.97 29 -3.94 29 -7 29 C-6.9175 28.0925 -6.835 27.185 -6.75 26.25 C-6.6319483 22.91628882 -6.6319483 22.91628882 -9 21.1875 C-11.40223751 18.56005272 -11.27156758 17.70620448 -11.25 14.25 C-11.18597617 12.83232943 -11.10884119 11.41493551 -11 10 C-11.928125 10.061875 -12.85625 10.12375 -13.8125 10.1875 C-17 10 -17 10 -18.625 8.625 C-19.07875 8.08875 -19.5325 7.5525 -20 7 C-22.09989652 5.82425289 -22.09989652 5.82425289 -24 5 C-24 4.34 -24 3.68 -24 3 C-21.50159546 2.49061655 -19.00176612 1.99236886 -16.5 1.5 C-15.80390625 1.35691406 -15.1078125 1.21382813 -14.390625 1.06640625 C-9.50912797 0.11722627 -4.97281701 -0.13440046 0 0 Z " fill="#173C53" transform="translate(103,68)"/>
<path d="M0 0 C3.38121991 2.44598887 4.76936783 3.89296559 5.625 8 C4.76936783 12.10703441 3.38121991 13.55401113 0 16 C-3.95779649 16.62491523 -6.00863886 16.61006839 -9.4375 14.5 C-11.63828902 10.97873756 -11.80414661 8.04560357 -11 4 C-8.16650967 -0.53358453 -5.10426635 -0.80593679 0 0 Z " fill="#F2F5F4" transform="translate(86,103)"/>
<path d="M0 0 C2.64 0 5.28 0 8 0 C10.74953946 2.74953946 11.17042807 5.2350197 12 9 C11.69375228 12.4452868 11.46226454 13.53773546 9 16 C5.98173347 16.27240673 3.03629378 16.08675125 0 16 C0 10.72 0 5.44 0 0 Z " fill="#5F7788" transform="translate(135,103)"/>
<path d="M0 0 C3.3 0 6.6 0 10 0 C10.33 0.66 10.66 1.32 11 2 C11 1.34 11 0.68 11 0 C11.99 0 12.98 0 14 0 C13.44661458 1.953125 12.89322917 3.90625 12.33984375 5.859375 C11.96513841 8.21958796 12.27346676 9.74419051 13 12 C13.66 12 14.32 12 15 12 C14.34 13.32 13.68 14.64 13 16 C12.71125 15.360625 12.4225 14.72125 12.125 14.0625 C11.17176549 11.84793921 11.17176549 11.84793921 9 11 C8.67 12.65 8.34 14.3 8 16 C7.34 16 6.68 16 6 16 C5.18667257 13.89615302 4.37436583 11.79191143 3.5625 9.6875 C3.11003906 8.51574219 2.65757813 7.34398438 2.19140625 6.13671875 C1.42015245 4.10617185 0.68687358 2.06062074 0 0 Z " fill="#D5DCE0" transform="translate(37,103)"/>
<path d="M0 0 C2.64 0 5.28 0 8 0 C10 2 10 2 10.08984375 3.98828125 C10.03957031 4.75527344 9.98929688 5.52226563 9.9375 6.3125 C9.82559842 10.39361652 10.43854188 12.69144992 13 16 C11.1875 15.8125 11.1875 15.8125 9 15 C7.96986723 13.35178756 6.96885372 11.68496298 6 10 C5.01 9.67 4.02 9.34 3 9 C3.66 11.31 4.32 13.62 5 16 C3.35 16 1.7 16 0 16 C0 10.72 0 5.44 0 0 Z " fill="#8496A3" transform="translate(94,103)"/>
<path d="M0 0 C2.31 0 4.62 0 7 0 C9 2 9 2 9.1875 5.0625 C9 8 9 8 8 9 C6.33382885 9.04063832 4.66611905 9.042721 3 9 C3.33 11.31 3.66 13.62 4 16 C2.35 16 0.7 16 -1 16 C-0.67 10.72 -0.34 5.44 0 0 Z " fill="#708695" transform="translate(62,103)"/>
<path d="M0 0 C1.32 0 2.64 0 4 0 C3.67 5.28 3.34 10.56 3 16 C-0.97105082 12.69079098 -4.45601684 9.64821796 -8 6 C-8 8.97 -8 11.94 -8 15 C-7.34 15.33 -6.68 15.66 -6 16 C-7.65 16 -9.3 16 -11 16 C-10.67 15.34 -10.34 14.68 -10 14 C-9.92907158 11.7927077 -9.91584975 9.58332548 -9.9375 7.375 C-9.94652344 6.18648438 -9.95554687 4.99796875 -9.96484375 3.7734375 C-9.97644531 2.85820313 -9.98804688 1.94296875 -10 1 C-5.3510435 3.00107258 -3.15754829 6.1248271 0 10 C0 6.7 0 3.4 0 0 Z " fill="#496578" transform="translate(15,103)"/>
<path d="M0 0 C3.3 0 6.6 0 10 0 C9.67 0.99 9.34 1.98 9 3 C7.35 2.67 5.7 2.34 4 2 C4 3.65 4 5.3 4 7 C5.65 6.67 7.3 6.34 9 6 C8.67 7.32 8.34 8.64 8 10 C6.68 9.67 5.36 9.34 4 9 C4 10.65 4 12.3 4 14 C7.465 13.505 7.465 13.505 11 13 C10.67 13.99 10.34 14.98 10 16 C6.7 16 3.4 16 0 16 C0 10.72 0 5.44 0 0 Z " fill="#6C8392" transform="translate(183,103)"/>
<path d="M0 0 C3.3 0 6.6 0 10 0 C9.67 0.99 9.34 1.98 9 3 C7.35 2.67 5.7 2.34 4 2 C4 3.65 4 5.3 4 7 C5.65 7 7.3 7 9 7 C8.67 7.99 8.34 8.98 8 10 C6.68 9.67 5.36 9.34 4 9 C4 10.65 4 12.3 4 14 C5.98 14 7.96 14 10 14 C9.67 14.66 9.34 15.32 9 16 C6.03 16 3.06 16 0 16 C0 10.72 0 5.44 0 0 Z " fill="#6E8492" transform="translate(23,103)"/>
<path d="M0 0 C3.4272611 2.47929527 4.81303325 3.85482869 5.5 8.0625 C4.96248682 11.22038995 4.14978703 12.67106405 2 15 C1.34 14.67 0.68 14.34 0 14 C0.66 13.34 1.32 12.68 2 12 C2.34490322 7.94738713 2.30163882 6.45245824 0 3 C-3.5 2.5 -3.5 2.5 -7 3 C-9.33296251 5.82717213 -9.33296251 5.82717213 -8.75 9.0625 C-8.2406756 12.099459 -8.2406756 12.099459 -6 14 C-3.42938689 14.64767793 -3.42938689 14.64767793 -1 15 C-1 15.33 -1 15.66 -1 16 C-4.45669582 16.31424507 -6.39901677 16.37956836 -9.375 14.5 C-11.65700312 10.98922596 -11.81004807 8.07529338 -11 4 C-8.16650967 -0.53358453 -5.10426635 -0.80593679 0 0 Z " fill="#637B8B" transform="translate(86,103)"/>
<path d="M0 0 C1.32 0 2.64 0 4 0 C4 4.62 4 9.24 4 14 C6.64 14 9.28 14 12 14 C12 9.38 12 4.76 12 0 C12.99 0 13.98 0 15 0 C15.05429959 1.74965358 15.09292823 3.49979787 15.125 5.25 C15.14820313 6.22453125 15.17140625 7.1990625 15.1953125 8.203125 C14.99645953 11.05069951 14.55438946 12.63037132 13 15 C9.98675805 16.50662097 7.31713623 16.17770373 4 16 C1.18515955 13.18515955 1.37242958 10.7833753 0.875 6.875 C0.70742187 5.59367187 0.53984375 4.31234375 0.3671875 2.9921875 C0.24601563 2.00476563 0.12484375 1.01734375 0 0 Z " fill="#879AA6" transform="translate(164,103)"/>
<path d="M0 0 C4.62 0 9.24 0 14 0 C13.67 0.99 13.34 1.98 13 3 C11.35 2.67 9.7 2.34 8 2 C8 6.29 8 10.58 8 15 C8.66 15.33 9.32 15.66 10 16 C8.35 16 6.7 16 5 16 C5.33 11.38 5.66 6.76 6 2 C4.02 2.33 2.04 2.66 0 3 C0 2.01 0 1.02 0 0 Z " fill="#607989" transform="translate(110,103)"/>
<path d="M0 0 C0.99 0 1.98 0 3 0 C2.33501617 4.38889325 0.81242323 7.9811485 -1 12 C-1.99 12 -2.98 12 -4 12 C-4.66 10.02 -5.32 8.04 -6 6 C-4.71034824 4.62437146 -3.37310707 3.29233607 -2 2 C-1.34 2 -0.68 2 0 2 C0 1.34 0 0.68 0 0 Z " fill="#C4CED3" transform="translate(54,103)"/>
<path d="M0 0 C2.64 0 5.28 0 8 0 C8 1.98 8 3.96 8 6 C6.35 6.33 4.7 6.66 3 7 C2.67 9.64 2.34 12.28 2 15 C1.67 15 1.34 15 1 15 C0.67 10.05 0.34 5.1 0 0 Z " fill="#96A5B0" transform="translate(135,103)"/>
<path d="M0 0 C0.99 0 1.98 0 3 0 C2.44661458 1.953125 1.89322917 3.90625 1.33984375 5.859375 C0.96513841 8.21958796 1.27346676 9.74419051 2 12 C2.66 12 3.32 12 4 12 C3.34 13.32 2.68 14.64 2 16 C1.71125 15.360625 1.4225 14.72125 1.125 14.0625 C0.17176549 11.84793921 0.17176549 11.84793921 -2 11 C-2.6328125 8.71484375 -2.6328125 8.71484375 -3.125 5.9375 C-3.29257812 5.01839844 -3.46015625 4.09929687 -3.6328125 3.15234375 C-3.75398438 2.44207031 -3.87515625 1.73179688 -4 1 C-3.34 1 -2.68 1 -2 1 C-1.67 1.99 -1.34 2.98 -1 4 C-0.67 2.68 -0.34 1.36 0 0 Z " fill="#4C687A" transform="translate(48,103)"/>
<path d="M0 0 C0.66 0 1.32 0 2 0 C2.33 4.29 2.66 8.58 3 13 C6.465 12.505 6.465 12.505 10 12 C9.67 12.99 9.34 13.98 9 15 C5.7 15 2.4 15 -1 15 C-0.67 10.05 -0.34 5.1 0 0 Z " fill="#456276" transform="translate(151,104)"/>
<path d="M0 0 C2.5 1.375 2.5 1.375 5 3 C5 3.66 5 4.32 5 5 C5.66 5 6.32 5 7 5 C7 4.34 7 3.68 7 3 C7.61875 2.87625 8.2375 2.7525 8.875 2.625 C11.19120832 2.12802644 11.19120832 2.12802644 13 0 C13.33 0.99 13.66 1.98 14 3 C13.67 3.66 13.34 4.32 13 5 C11.35 4.67 9.7 4.34 8 4 C8 4.66 8 5.32 8 6 C5.03 6 2.06 6 -1 6 C-0.67 4.02 -0.34 2.04 0 0 Z " fill="#95A5AF" transform="translate(97,91)"/>
<path d="M0 0 C2.475 0.495 2.475 0.495 5 1 C5.625 2.875 5.625 2.875 6 5 C5.34 5.66 4.68 6.32 4 7 C2.68 7 1.36 7 0 7 C0 4.69 0 2.38 0 0 Z " fill="#F0F3F3" transform="translate(139,111)"/>
<path d="M0 0 C0.66 0 1.32 0 2 0 C2.06058594 0.91523437 2.12117188 1.83046875 2.18359375 2.7734375 C2.26738281 3.96195312 2.35117188 5.15046875 2.4375 6.375 C2.51871094 7.55835937 2.59992188 8.74171875 2.68359375 9.9609375 C2.81084936 12.91518901 2.81084936 12.91518901 4 15 C2.35 15 0.7 15 -1 15 C-0.67 10.05 -0.34 5.1 0 0 Z " fill="#667C8B" transform="translate(95,104)"/>
<path d="M0 0 C1.32 0 2.64 0 4 0 C3.67 5.28 3.34 10.56 3 16 C2.67 14.68 2.34 13.36 2 12 C1.34 11.67 0.68 11.34 0 11 C0 7.37 0 3.74 0 0 Z " fill="#8FA1AB" transform="translate(15,103)"/>
<path d="M0 0 C1.32 0 2.64 0 4 0 C3.98839844 0.83144531 3.97679687 1.66289063 3.96484375 2.51953125 C3.95582031 3.60621094 3.94679687 4.69289063 3.9375 5.8125 C3.92589844 6.89144531 3.91429687 7.97039062 3.90234375 9.08203125 C3.86375234 12.06512169 3.86375234 12.06512169 5 15 C4.01 14.67 3.02 14.34 2 14 C1.34 9.38 0.68 4.76 0 0 Z " fill="#506B7D" transform="translate(164,103)"/>
<path d="M0 0 C0.66 0 1.32 0 2 0 C3.32 3.3 4.64 6.6 6 10 C6.66 10 7.32 10 8 10 C7.67 11.65 7.34 13.3 7 15 C6.34 15 5.68 15 5 15 C4.16260219 12.8765984 3.33019717 10.7512272 2.5 8.625 C1.80390625 6.84996094 1.80390625 6.84996094 1.09375 5.0390625 C0 2 0 2 0 0 Z " fill="#3A586C" transform="translate(38,104)"/>
<path d="M0 0 C2.475 0.495 2.475 0.495 5 1 C4.67 2.32 4.34 3.64 4 5 C2.68 5.33 1.36 5.66 0 6 C0 4.02 0 2.04 0 0 Z " fill="#F0F3F4" transform="translate(65,105)"/>
<path d="M0 0 C1.65 0 3.3 0 5 0 C5 1.65 5 3.3 5 5 C3.35 5 1.7 5 0 5 C0 3.35 0 1.7 0 0 Z " fill="#B8C2CA" transform="translate(51,128)"/>
<path d="M0 0 C2.475 0.495 2.475 0.495 5 1 C5 2.32 5 3.64 5 5 C3.35 5 1.7 5 0 5 C0 3.35 0 1.7 0 0 Z " fill="#ECEFF1" transform="translate(97,105)"/>
<path d="M0 0 C0.99 0 1.98 0 3 0 C3 1.65 3 3.3 3 5 C1.68 5 0.36 5 -1 5 C-0.67 3.35 -0.34 1.7 0 0 Z " fill="#B8C3CA" transform="translate(151,127)"/>
<path d="M0 0 C0.66 0.33 1.32 0.66 2 1 C1.67 2.32 1.34 3.64 1 5 C-0.65 4.67 -2.3 4.34 -4 4 C-4 4.66 -4 5.32 -4 6 C-5.32 6 -6.64 6 -8 6 C-7.67 5.34 -7.34 4.68 -7 4 C-6.34 4.33 -5.68 4.66 -5 5 C-5 4.34 -5 3.68 -5 3 C-4.360625 2.87625 -3.72125 2.7525 -3.0625 2.625 C-2.0415625 2.315625 -2.0415625 2.315625 -1 2 C-0.67 1.34 -0.34 0.68 0 0 Z " fill="#7A8E9C" transform="translate(109,91)"/>
<path d="M0 0 C1.32 0 2.64 0 4 0 C3.67 1.65 3.34 3.3 3 5 C2.01 5 1.02 5 0 5 C0 3.35 0 1.7 0 0 Z " fill="#BBC5CC" transform="translate(171,128)"/>
<path d="M0 0 C1.32 0 2.64 0 4 0 C3.67 1.65 3.34 3.3 3 5 C2.01 5 1.02 5 0 5 C0 3.35 0 1.7 0 0 Z " fill="#F1F4F4" transform="translate(139,105)"/>
<path d="M0 0 C0.99 0 1.98 0 3 0 C3 1.98 3 3.96 3 6 C2.01 6 1.02 6 0 6 C0 4.02 0 2.04 0 0 Z " fill="#B5C0C8" transform="translate(165,127)"/>
<path d="M0 0 C1.32 0 2.64 0 4 0 C3.67 1.65 3.34 3.3 3 5 C2.01 4.67 1.02 4.34 0 4 C0 2.68 0 1.36 0 0 Z " fill="#B4C0C8" transform="translate(72,128)"/>
<path d="M0 0 C0 1.98 0 3.96 0 6 C-0.66 6 -1.32 6 -2 6 C-3.625 3.5 -3.625 3.5 -5 1 C-2 0 -2 0 0 0 Z " fill="#B9C4CB" transform="translate(69,127)"/>
<path d="M0 0 C0.66 0 1.32 0 2 0 C3.2890625 1.75 3.2890625 1.75 4.625 4 C5.07101563 4.7425 5.51703125 5.485 5.9765625 6.25 C6.31429687 6.8275 6.65203125 7.405 7 8 C3.21875 7.3046875 3.21875 7.3046875 1.25 4.5625 C0 2 0 2 0 0 Z " fill="#4B677A" transform="translate(100,111)"/>
</svg>
